<svg viewBox="0 0 120 120" xmlns="http://www.w3.org/2000/svg"><rect x="0" y="0" width="10" height="10" fill="#20407C"/><rect x="11" y="0" width="10" height="10" fill="#E5398D"/><rect x="66" y="0" width="10" height="10" fill="#754022"/><rect x="77" y="0" width="10" height="10" fill="#70BD44"/><rect x="88" y="0" width="10" height="10" fill="#E5398D"/><rect x="99" y="0" width="10" height="10" fill="#F7E623"/><rect x="110" y="0" width="10" height="10" fill="#754022"/><rect x="0" y="11" width="10" height="10" fill="#70BD44"/><rect x="11" y="11" width="10" height="10" fill="#20407C"/><rect x="66" y="11" width="10" height="10" fill="#70BD44"/><rect x="77" y="11" width="10" height="10" fill="#20407C"/><rect x="88" y="11" width="10" height="10" fill="#754022"/><rect x="99" y="11" width="10" height="10" fill="#20407C"/><rect x="110" y="11" width="10" height="10" fill="#F7E623"/><rect x="0" y="22" width="10" height="10" fill="#F7E623"/><rect x="11" y="22" width="10" height="10" fill="#70BD44"/><rect x="66" y="22" width="10" height="10" fill="#E5398D"/><rect x="77" y="22" width="10" height="10" fill="#F7E623"/><rect x="99" y="22" width="10" height="10" fill="#70BD44"/><rect x="110" y="22" width="10" height="10" fill="#E5398D"/><rect x="0" y="33" width="10" height="10" fill="#70BD44"/><rect x="11" y="33" width="10" height="10" fill="#20407C"/><rect x="66" y="33" width="10" height="10" fill="#754022"/><rect x="77" y="33" width="10" height="10" fill="#20407C"/><rect x="0" y="44" width="10" height="10" fill="#754022"/><rect x="11" y="44" width="10" height="10" fill="#E5398D"/><rect x="66" y="44" width="10" height="10" fill="#F7E623"/><rect x="77" y="44" width="10" height="10" fill="#E5398D"/><rect x="0" y="55" width="10" height="10" fill="#E5398D"/><rect x="11" y="55" width="10" height="10" fill="#70BD44"/><rect x="66" y="55" width="10" height="10" fill="#20407C"/><rect x="77" y="55" width="10" height="10" fill="#70BD44"/><rect x="0" y="66" width="10" height="10" fill="#754022"/><rect x="11" y="66" width="10" height="10" fill="#20407C"/><rect x="66" y="66" width="10" height="10" fill="#E5398D"/><rect x="77" y="66" width="10" height="10" fill="#20407C"/><rect x="0" y="77" width="10" height="10" fill="#E5398D"/><rect x="11" y="77" width="10" height="10" fill="#F7E623"/><rect x="66" y="77" width="10" height="10" fill="#F7E623"/><rect x="77" y="77" width="10" height="10" fill="#754022"/><rect x="0" y="88" width="10" height="10" fill="#70BD44"/><rect x="11" y="88" width="10" height="10" fill="#20407C"/><rect x="66" y="88" width="10" height="10" fill="#70BD44"/><rect x="77" y="88" width="10" height="10" fill="#20407C"/><rect x="99" y="88" width="10" height="10" fill="#70BD44"/><rect x="110" y="88" width="10" height="10" fill="#F7E623"/><rect x="0" y="99" width="10" height="10" fill="#754022"/><rect x="11" y="99" width="10" height="10" fill="#E5398D"/><rect x="22" y="99" width="10" height="10" fill="#754022"/><rect x="33" y="99" width="10" height="10" fill="#20407C"/><rect x="44" y="99" width="10" height="10" fill="#F7E623"/><rect x="66" y="99" width="10" height="10" fill="#E5398D"/><rect x="77" y="99" width="10" height="10" fill="#70BD44"/><rect x="88" y="99" width="10" height="10" fill="#754022"/><rect x="99" y="99" width="10" height="10" fill="#20407C"/><rect x="110" y="99" width="10" height="10" fill="#E5398D"/><rect x="0" y="110" width="10" height="10" fill="#20407C"/><rect x="11" y="110" width="10" height="10" fill="#754022"/><rect x="22" y="110" width="10" height="10" fill="#20407C"/><rect x="33" y="110" width="10" height="10" fill="#754022"/><rect x="44" y="110" width="10" height="10" fill="#70BD44"/><rect x="66" y="110" width="10" height="10" fill="#20407C"/><rect x="77" y="110" width="10" height="10" fill="#E5398D"/><rect x="88" y="110" width="10" height="10" fill="#20407C"/><rect x="99" y="110" width="10" height="10" fill="#70BD44"/><rect x="110" y="110" width="10" height="10" fill="#F7E623"/></svg>